<svg xmlns="http://www.w3.org/2000/svg" viewBox="0 0 128 128">
    <rect fill="#011638" width="128" height="128"/>
    <ellipse fill="#6c49b8" opacity="0.1" cx="64" cy="64" rx="56.82" ry="39.77" transform="translate(-19.62 98.64) rotate(-67.5)"/>
    <ellipse fill="#6c49b8" opacity="0.1" cx="64" cy="64" rx="39.77" ry="56.82" transform="translate(-19.62 29.36) rotate(-22.5)"/>
    <ellipse fill="#6c49b8" opacity="0.1" cx="64" cy="64" rx="39.77" ry="56.82" transform="translate(-19.62 98.64) rotate(-67.5)"/>
    <ellipse fill="#6c49b8" opacity="0.1" cx="64" cy="64" rx="56.82" ry="39.77" transform="translate(-19.62 29.36) rotate(-22.5)"/>
    <circle fill="#6c49b8" opacity="0.1" cx="64" cy="64" r="30"/>
    <path fill="#fff" d="M26.76,58.26a1.11,1.11,0,0,1-.58-.15,1.4,1.4,0,0,1-.42-.42,1.17,1.17,0,0,1-.15-.58,1.1,1.1,0,0,1,.15-.57,1.27,1.27,0,0,1,.42-.41,1,1,0,0,1,.58-.16,1,1,0,0,1,.56.16,1.27,1.27,0,0,1,.42.41,1,1,0,0,1,.16.57,1.08,1.08,0,0,1-.16.58,1.4,1.4,0,0,1-.42.42A1,1,0,0,1,26.76,58.26ZM25.87,73V60.72h1.75V73ZM32.81,73V60.72h1.75V62.4a4.17,4.17,0,0,1,1.56-1.46,5.13,5.13,0,0,1,2.58-.6,4.92,4.92,0,0,1,2.46.59,3.8,3.8,0,0,1,1.58,1.71,6,6,0,0,1,.56,2.7V73H41.54V65.68a4.27,4.27,0,0,0-.88-2.91,3.18,3.18,0,0,0-2.51-1,3.88,3.88,0,0,0-1.93.45A3.2,3.2,0,0,0,35,63.41a3.07,3.07,0,0,0-.43,1.6v8ZM60.12,73.4a6.94,6.94,0,0,1-2.59-.49A6.35,6.35,0,0,1,54,69.46a6.34,6.34,0,0,1-.52-2.59,6.63,6.63,0,0,1,.5-2.58,6.49,6.49,0,0,1,1.41-2.08,6.58,6.58,0,0,1,2.12-1.38,6.91,6.91,0,0,1,2.63-.49,7.24,7.24,0,0,1,2.3.36,5.87,5.87,0,0,1,1.89,1l-.72,1.17a5.67,5.67,0,0,0-5.93-.38,4.79,4.79,0,0,0-1.78,1.82,5.19,5.19,0,0,0-.63,2.56,5.13,5.13,0,0,0,.64,2.57,4.77,4.77,0,0,0,1.81,1.81,5.16,5.16,0,0,0,2.63.66,5.66,5.66,0,0,0,1.77-.27,4.65,4.65,0,0,0,1.48-.78L64.31,72a6.29,6.29,0,0,1-1.89,1A7.25,7.25,0,0,1,60.12,73.4ZM73.25,73.4a5.94,5.94,0,0,1-3.12-.85,6.11,6.11,0,0,1-2.19-2.32,6.91,6.91,0,0,1-.81-3.37,6.83,6.83,0,0,1,.8-3.35,6.09,6.09,0,0,1,2.18-2.32,5.84,5.84,0,0,1,3.14-.85,5.94,5.94,0,0,1,3,.78,5.19,5.19,0,0,1,2.07,2.16V60.72h1.75V73H78.34V70.42a5.79,5.79,0,0,1-2.13,2.18A5.66,5.66,0,0,1,73.25,73.4Zm.43-1.53a4.51,4.51,0,0,0,4.12-2.42,5.78,5.78,0,0,0,0-5.17,4.39,4.39,0,0,0-1.67-1.77,4.94,4.94,0,0,0-4.9,0,4.48,4.48,0,0,0-1.68,1.77,5.78,5.78,0,0,0,0,5.17,4.57,4.57,0,0,0,1.68,1.78A4.64,4.64,0,0,0,73.68,71.87ZM85.25,73V52.37H87V73ZM97.88,73.4a7,7,0,0,1-2.59-.49,6.3,6.3,0,0,1-2.12-1.37,6.49,6.49,0,0,1-1.43-2.08,6.34,6.34,0,0,1-.52-2.59,6.46,6.46,0,0,1,.51-2.58,6.18,6.18,0,0,1,1.41-2.08,6.48,6.48,0,0,1,2.12-1.38,6.83,6.83,0,0,1,2.62-.49,7.35,7.35,0,0,1,2.31.36,5.82,5.82,0,0,1,1.88,1l-.72,1.17a5.17,5.17,0,0,0-3.26-1,5.22,5.22,0,0,0-2.66.66,4.72,4.72,0,0,0-1.78,1.82,5.42,5.42,0,0,0,0,5.13,4.67,4.67,0,0,0,1.8,1.81,5.23,5.23,0,0,0,2.64.66,5.75,5.75,0,0,0,1.77-.27,4.5,4.5,0,0,0,1.47-.78l.73,1.18a6.11,6.11,0,0,1-1.88,1A7.26,7.26,0,0,1,97.88,73.4ZM107.89,73.4a1.24,1.24,0,0,1-.63-.17,1.12,1.12,0,0,1-.44-.45,1.23,1.23,0,0,1-.17-.62,1.17,1.17,0,0,1,.17-.61,1.14,1.14,0,0,1,.45-.45,1.18,1.18,0,0,1,.61-.16,1.17,1.17,0,0,1,.62.16,1.26,1.26,0,0,1,.44.45,1.16,1.16,0,0,1,.16.61,1.22,1.22,0,0,1-.16.62,1.19,1.19,0,0,1-.44.45A1.17,1.17,0,0,1,107.89,73.4Z"/>
</svg>